{"title":"The Island-AC3-XviD-BRRip 2005","uid":6642986,"size":1717528480,"categoryP":"video","categoryS":"movies","magnet":"?xt=urn:btih:712ac48291a1f6f3fcd776b9e77790a0b105e8c4&amp;dn=The+Island-AC3-XviD-BRRip+2005&amp;tr=udp%3A%2F%2Ftracker.openbittorrent.com%3A80&amp;tr=udp%3A%2F%2Fopen.demonii.com%3A1337&amp;tr=udp%3A%2F%2Ftracker.coppersurfer.tk%3A6969&amp;tr=udp%3A%2F%2Fexodus.desync.com%3A6969","seeders":1,"leechers":0,"uploader":"FatFreddy31","files":-1,"time":1314821781,"description":"[img]http://img59.imageshack.us/img59/4489/217rxg320x200.jpg[/img]\n &lt;a href=&quot;\nhttp://www.imdb.com/title/tt0399201/&quot; rel=&quot;nofollow&quot; target=&quot;_NEW&quot;&gt;\nhttp://www.imdb.com/title/tt0399201/&lt;/a&gt;\n &lt;a href=&quot;\nhttp://www.moviemeter.nl/film/28105&quot; rel=&quot;nofollow&quot; target=&quot;_NEW&quot;&gt;\nhttp://www.moviemeter.nl/film/28105&lt;/a&gt;\n\nSubs: Dutch, English.\n\nSource: The Island 2005 BluRay 720p x264-CtrlHD\n\nGeneral\nComplete name                    : The Island-AC3-XviD-BRRip 2005\\The Island-AC3-XviD-BRRip 2005.avi\nFormat                           : AVI\nFormat/Info                      : Audio Video Interleave\nFile size                        : 1.60 GiB\nDuration                         : 2h 15mn\nOverall bit rate                 : 1 683 Kbps\nWriting application              : VirtualDubMod 1.5.4.1 (build 2178/release)\nWriting library                  : VirtualDubMod build 2178/release\n\nVideo\nID                               : 0\nFormat                           : MPEG-4 Visual\nFormat profile                   : Simple@L3\nFormat settings, BVOP            : No\nFormat settings, QPel            : No\nFormat settings, GMC             : No warppoints\nFormat settings, Matrix          : Default (H.263)\nCodec ID                         : XVID\nCodec ID/Hint                    : XviD\nDuration                         : 2h 15mn\nBit rate                         : 1 226 Kbps\nWidth                            : 720 pixels\nHeight                           : 304 pixels\nDisplay aspect ratio             : 2.35:1\nFrame rate                       : 23.976 fps\nResolution                       : 8 bits\nColorimetry                      : 4:2:0\nScan type                        : Progressive\nBits/(Pixel*Frame)               : 0.234\nStream size                      : 1.16 GiB (73%)\nWriting library                  : XviD 1.1.2 (UTC 2006-11-01)\n\nAudio\nID                               : 1\nFormat                           : AC-3\nFormat/Info                      : Audio Coding 3\nCodec ID                         : 2000\nDuration                         : 2h 15mn\nBit rate mode                    : Constant\nBit rate                         : 448 Kbps\nChannel(s)                       : 6 channels\nChannel positions                : Front: L C R, Surround: L R, LFE\nSampling rate                    : 48.0 KHz\nStream size                      : 436 MiB (27%)\nAlignment                        : Split accross interleaves\nInterleave, duration             : 42 ms (1.00 video frame)\nInterleave, preload duration     : 500 ms\n\nEnjoy...\n\n[img]http://img190.imageshack.us/img190/5394/theislandac3xvidbrrip20.jpg[/img]","torrent":{"xt":"urn:btih:712ac48291a1f6f3fcd776b9e77790a0b105e8c4","amp;dn":"The+Island-AC3-XviD-BRRip+2005","amp;tr":["udp%3A%2F%2Ftracker.openbittorrent.com%3A80","udp%3A%2F%2Fopen.demonii.com%3A1337","udp%3A%2F%2Ftracker.coppersurfer.tk%3A6969","udp%3A%2F%2Fexodus.desync.com%3A6969"],"infoHash":"712ac48291a1f6f3fcd776b9e77790a0b105e8c4","infoHashBuffer":{"type":"Buffer","data":[113,42,196,130,145,161,246,243,252,215,118,185,231,119,144,160,177,5,232,196]},"announce":[],"urlList":[]}}